HIERARCHY
ROOT Hips
{
	OFFSET 0.000000 0.000000 0.000000
	CHANNELS 6 Xposition Yposition Zposition Zrotation Yrotation Xrotation 
	JOINT LHipJoint
	{
		OFFSET 0.000000 0.000000 0.000000
		CHANNELS 3 Zrotation Yrotation Xrotation
		JOINT LeftUpLeg
		{
			OFFSET 1.363060 -1.794630 0.839290
			CHANNELS 3 Zrotation Yrotation Xrotation
			JOINT LeftLeg
			{
				OFFSET 2.448110 -6.726130 0.000000
				CHANNELS 3 Zrotation Yrotation Xrotation
				JOINT LeftFoot
				{
					OFFSET 2.562200 -7.039590 0.000000
					CHANNELS 3 Zrotation Yrotation Xrotation
					JOINT LeftToeBase
					{
						OFFSET 0.157640 -0.433110 2.322550
						CHANNELS 3 Zrotation Yrotation Xrotation
						End Site
						{
							OFFSET 0.000000 0.000000 0.000000
						}
					}
				}
			}
		}
	}
	JOINT RHipJoint
	{
		OFFSET 0.000000 0.000000 0.000000
		CHANNELS 3 Zrotation Yrotation Xrotation
		JOINT RightUpLeg
		{
			OFFSET -1.305520 -1.794630 0.839290
			CHANNELS 3 Zrotation Yrotation Xrotation
			JOINT RightLeg
			{
				OFFSET -2.542530 -6.985550 0.000000
				CHANNELS 3 Zrotation Yrotation Xrotation
				JOINT RightFoot
				{
					OFFSET -2.568260 -7.056230 0.000000
					CHANNELS 3 Zrotation Yrotation Xrotation
					JOINT RightToeBase
					{
						OFFSET -0.164730 -0.452590 2.363150
						CHANNELS 3 Zrotation Yrotation Xrotation
						End Site
						{
							OFFSET 0.000000 0.000000 0.000000
						}
					}
				}
			}
		}
	}
}
MOTION
Frames: 25
Frame Time: 0.008333
4.984867 20.060886 0.938451 37.767634 -85.026488 -8.980979 -10.776418 3.185903 5.181697 -5.794759 -2.190419 -30.506870 -0.562435 0.268323 15.505182 1.545717 8.749251 32.322138 5.315400 0.000000 -60.952500 11.190780 -1.930306 1.020531 6.354377 -15.628171 -30.024925 2.231003 -0.829651 15.231727 -0.044122 -0.094154 23.225605 -0.446500 -0.000000 -78.715000
4.876942 20.220699 0.926143 38.660601 -85.051590 -9.459222 -10.687159 3.109917 5.315124 -5.918608 -2.795493 -31.654554 -0.578872 0.261086 16.121422 1.539566 9.329691 30.545253 5.552100 -0.000000 -60.719900 11.124713 -1.808480 1.132244 6.610999 -15.428695 -31.313558 2.365193 -0.790412 15.417623 -0.048329 -0.694522 20.932325 -0.810400 -0.000000 -78.467400
4.774982 20.368971 0.914995 39.415648 -85.050046 -9.797259 -10.601337 3.020475 5.397986 -6.123199 -3.241255 -32.929854 -0.612091 0.268192 16.878496 1.525894 9.678835 28.816800 5.624900 -0.000001 -60.477800 11.053477 -1.675848 1.212054 6.903891 -15.323765 -32.678302 2.508416 -0.761374 15.640513 -0.062409 -1.165146 18.819188 -1.069800 -0.000000 -78.168500
4.678575 20.506624 0.905280 39.967426 -85.036334 -9.940855 -10.523860 2.921444 5.429723 -6.398907 -3.521147 -34.283074 -0.660773 0.289650 17.689891 1.502386 9.800159 27.260852 5.563600 -0.000000 -60.227400 10.976398 -1.541399 1.260156 7.245155 -15.303337 -34.087984 2.659960 -0.744372 15.857126 -0.078897 -1.498074 16.987689 -1.237100 0.000000 -77.883800
4.587019 20.633941 0.897084 40.291412 -85.023286 -9.868869 -10.457345 2.816491 5.414048 -6.734075 -3.648521 -35.667641 -0.723059 0.323404 18.471262 1.467703 9.725832 25.956625 5.410201 0.000000 -60.036500 10.893263 -1.412424 1.281402 7.638685 -15.339006 -35.512552 2.818570 -0.738298 16.026084 -0.090756 -1.701778 15.486484 -1.332801 -0.000000 -77.736100
4.499482 20.751254 0.890278 40.400183 -85.020418 -9.593642 -10.401902 2.708878 5.357369 -7.118942 -3.645613 -37.048413 -0.798262 0.366140 19.156861 1.420834 9.494181 24.921831 5.199400 -0.000001 -59.898700 10.804218 -1.293502 1.284082 8.079591 -15.394384 -36.929798 2.983533 -0.740199 16.122599 -0.091471 -1.782189 14.298789 -1.372600 0.000000 -77.721099
4.414893 20.858916 0.884666 40.330532 -85.033830 -9.145379 -10.355876 2.601308 5.268892 -7.543657 -3.544592 -38.397870 -0.885951 0.412942 19.692070 1.363043 9.154153 24.138192 4.962200 -0.000000 -59.853800 10.710133 -1.186940 1.279546 8.553264 -15.427111 -38.319179 3.153800 -0.744509 16.122939 -0.077277 -1.750125 13.376788 -1.369200 -0.000001 -77.864100
4.332305 20.956584 0.879923 40.132594 -85.065346 -8.568619 -10.316116 2.495959 5.158200 -8.002971 -3.375766 -39.703687 -0.987248 0.459157 20.047635 1.295810 8.746908 23.547115 4.717201 0.000000 -59.867000 10.612135 -1.092659 1.280044 9.038854 -15.398816 -39.669866 3.328818 -0.745686 16.021734 -0.045555 -1.607921 12.637099 -1.327000 -0.000000 -78.060500
4.250645 21.044306 0.875752 39.869047 -85.113513 -7.916540 -10.278998 2.394948 5.035646 -8.493737 -3.169996 -40.961226 -1.103273 0.499982 20.206688 1.222211 8.316551 23.085606 4.481700 -0.000000 -60.018600 10.512144 -1.009310 1.298079 9.511302 -15.277853 -40.975672 3.507484 -0.737748 15.814121 0.003693 -1.364181 12.003401 -1.250900 -0.000000 -78.369300
4.168897 21.121440 0.871826 39.596985 -85.174158 -7.236995 -10.240940 2.300325 4.910543 -9.017489 -2.950719 -42.178503 -1.236158 0.531993 20.175569 1.144302 7.892264 22.676640 4.263200 -0.000000 -60.240000 10.411865 -0.934893 1.344875 9.945886 -15.043379 -42.240431 3.689298 -0.716554 15.512016 0.070395 -1.019323 11.392938 -1.141200 0.000000 -78.647400
4.086155 21.187677 0.867869 39.377460 -85.241447 -6.582721 -10.198777 2.214047 4.791036 -9.578110 -2.736894 -43.367710 -1.387574 0.552608 19.969510 1.064503 7.498799 22.263097 4.069200 -0.000000 -60.518699 10.313410 -0.867084 1.428883 10.320051 -14.687938 -43.472785 3.872996 -0.679519 15.129229 0.153022 -0.580112 10.753049 -1.001700 0.000000 -78.852500
4.001839 21.242636 0.863658 39.256951 -85.309188 -5.996464 -10.150171 2.137799 4.683130 -10.181699 -2.539648 -44.544629 -1.558854 0.560658 19.614112 0.984647 7.149362 21.806876 3.903100 -0.000000 -60.817201 10.218525 -0.803969 1.554989 10.618278 -14.216843 -44.686819 4.056855 -0.626398 14.685226 0.249307 -0.057521 10.058824 -0.838500 -0.000000 -78.936800
3.915489 21.286194 0.858979 39.289814 -85.370956 -5.532794 -10.093557 2.073255 4.589906 -10.836333 -2.364482 -45.719116 -1.750568 0.556051 19.138201 0.906231 6.848508 21.296607 3.765500 -0.000000 -61.065100 10.129423 -0.743643 1.722350 10.830611 -13.651715 -45.895493 4.238447 -0.559518 14.202875 0.356749 0.534964 9.315660 -0.659100 0.000001 -78.854300
3.826658 21.318109 0.853974 39.452526 -85.426104 -5.163363 -10.030226 2.021422 4.516325 -11.541739 -2.212658 -46.913063 -1.960811 0.539537 18.565758 0.831285 6.599358 20.772474 3.660400 -0.000000 -61.376200 10.046456 -0.688547 1.932311 10.964764 -13.007148 -47.121080 4.415303 -0.481764 13.694936 0.470876 1.163758 8.572749 -0.477400 -0.000000 -78.694800
3.735567 21.338287 0.848428 39.790280 -85.470704 -4.947776 -9.960306 1.983230 4.458346 -12.306985 -2.077425 -48.121103 -2.188950 0.513881 17.930459 0.758897 6.384851 20.254387 3.578700 0.000000 -61.554200 9.971969 -0.637430 2.173904 11.023974 -12.322901 -48.366103 4.584032 -0.399561 13.187651 0.589214 1.811101 7.871851 -0.298900 0.000000 -78.408100
3.642162 21.347136 0.842439 40.277383 -85.507088 -4.866545 -9.886655 1.958803 4.414797 -13.128275 -1.954097 -49.342689 -2.431232 0.481680 17.250660 0.689241 6.197847 19.807188 3.519900 0.000000 -61.677400 9.906664 -0.592881 2.439502 11.025442 -11.623820 -49.635000 4.741788 -0.318270 12.692236 0.707885 2.443529 7.278739 -0.132400 0.000000 -78.104400
3.546775 21.344604 0.836069 40.886443 -85.538846 -4.905414 -9.812179 1.947376 4.381535 -13.999467 -1.835712 -50.568138 -2.683951 0.446380 16.546809 0.620547 6.022063 19.476959 3.477300 -0.000000 -61.666500 9.850976 -0.556714 2.718853 10.986904 -10.933274 -50.920894 4.886047 -0.243082 12.219296 0.823468 3.032475 6.843504 0.018000 -0.000000 -77.846400
3.449780 21.330992 0.829383 41.587228 -85.570881 -5.051804 -9.740062 1.946534 4.352460 -14.906285 -1.717007 -51.771333 -2.941801 0.410322 15.827395 0.551655 5.849022 19.305246 3.447500 -0.000000 -61.570900 9.804765 -0.529349 2.998853 10.925048 -10.271841 -52.201029 5.014699 -0.177722 11.773510 0.933002 3.556193 6.597995 0.151100 0.000000 -77.712200
3.351481 21.306724 0.822535 42.319480 -85.608629 -5.254193 -9.673337 1.953826 4.327258 -15.825737 -1.603110 -52.936830 -3.198824 0.374302 15.088612 0.482001 5.678066 19.333314 3.431201 -0.000000 -61.552700 9.766764 -0.511752 3.272467 10.857677 -9.644614 -53.463667 5.127213 -0.124214 11.358997 1.033255 3.994417 6.551993 0.265400 -0.000000 -77.779300
3.252398 21.271867 0.815551 43.048127 -85.657839 -5.501337 -9.613924 1.963732 4.296538 -16.733599 -1.485193 -54.022763 -3.450239 0.338470 14.336183 0.409421 5.491040 19.533561 3.414299 -0.000000 -61.488901 9.734957 -0.500938 3.524509 10.794572 -9.065129 -54.662420 5.222860 -0.082178 10.974439 1.122011 4.344224 6.679090 0.362700 0.000000 -78.014700
3.152963 21.226759 0.808505 43.717958 -85.722509 -5.752827 -9.562985 1.970920 4.256477 -17.600404 -1.362676 -54.999666 -3.691073 0.301050 13.565220 0.333154 5.277667 19.877477 3.387000 -0.000001 -61.417000 9.706445 -0.493932 3.746013 10.743563 -8.535244 -55.764017 5.302196 -0.049330 10.617576 1.196997 4.605540 6.932462 0.442700 0.000000 -78.387899
3.053413 21.171703 0.801552 44.262181 -85.805719 -5.949490 -9.520740 1.970571 4.207442 -18.396010 -1.240919 -55.849574 -3.917357 0.258827 12.766172 0.253003 5.029429 20.323864 3.339600 -0.000000 -61.387500 9.677907 -0.487764 3.932426 10.709644 -8.051201 -56.748293 5.367074 -0.022801 10.289662 1.256731 4.784454 7.248886 0.504100 0.000000 -78.843200
2.954082 21.106384 0.794705 44.629665 -85.908184 -6.049357 -9.486458 1.957622 4.146801 -19.095726 -1.118073 -56.552795 -4.126560 0.208780 11.936386 0.168346 4.730567 20.807220 3.257900 -0.000000 -61.424800 9.646306 -0.478234 4.078207 10.691781 -7.612098 -57.587322 5.419042 0.001487 9.987490 1.300586 4.893603 7.556575 0.546501 -0.000000 -79.303000
2.855158 21.031266 0.788026 44.765237 -86.029265 -6.000279 -9.458837 1.928595 4.075084 -19.681178 -0.996121 -57.103823 -4.317294 0.148208 11.074367 0.078921 4.368923 21.266307 3.130700 0.000000 -61.507501 9.609166 -0.462024 4.182293 10.686249 -7.213881 -58.268943 5.460072 0.027064 9.709601 1.328881 4.947199 7.790479 0.569600 -0.000000 -79.671300
2.756605 20.946039 0.781621 44.608709 -86.166876 -5.735523 -9.436781 1.881584 3.995238 -20.138753 -0.879978 -57.508525 -4.488511 0.075018 10.177994 -0.014526 3.942158 21.659962 2.954701 0.000000 -61.694600 9.565107 -0.437153 4.246741 10.688794 -6.850857 -58.793325 5.492225 0.056680 9.452608 1.342853 4.958564 7.908702 0.574700 0.000000 -79.886700
